<svg width="152" height="34" viewBox="0 0 152 34" fill="none" xmlns="http://www.w3.org/2000/svg">
<rect x="0.5" y="0.5" width="151" height="33" rx="4.5" fill="url(#paint0_linear_2100_469)" stroke="#E77D65"/>
<path d="M21.1562 13.5977H28.4395V22H26.6816V15.2207H22.9141V22H21.1562V13.5977Z" fill="white"/>
<path d="M38.1777 17.7988C38.1777 20.1602 36.3613 22 33.8945 22C31.4336 22 29.6172 20.1602 29.6172 17.7988C29.6172 15.4434 31.4336 13.5977 33.8945 13.5977C36.3613 13.5977 38.1777 15.4434 38.1777 17.7988ZM36.3789 17.7988C36.3789 16.3516 35.4062 15.209 33.8945 15.209C32.3887 15.209 31.416 16.3516 31.416 17.7988C31.416 19.252 32.3887 20.3828 33.8945 20.3828C35.4062 20.3828 36.3789 19.252 36.3789 17.7988Z" fill="white"/>
<path d="M40.334 13.5977H46.4277V22H44.6758V15.2148H42.0859V18.3438C42.0859 19.3398 41.9395 20.1016 41.5117 20.7461C40.9961 21.5195 40.2227 22 39.2793 22C38.8047 22 38.3535 21.8828 37.9434 21.6543L38.7871 20.1133C38.9336 20.2012 39.0977 20.2422 39.2793 20.2422C39.6191 20.2422 39.8652 20.0781 40.0469 19.8027C40.2812 19.4512 40.334 18.9707 40.334 18.1797V13.5977Z" fill="white"/>
<path d="M47.2832 13.5977H49.2402L51.291 17.4648L53.2715 13.5977H55.2168L52.1641 19.3164C51.707 20.1719 51.3965 20.6992 50.9688 21.1504C50.4941 21.6484 49.9199 22.0117 49.1465 22.0117C48.6133 22.0117 48.1035 21.8418 47.6699 21.5254L48.5664 20.0488C48.7363 20.1777 48.9473 20.2539 49.1699 20.2539C49.5332 20.2539 49.8027 20.0488 50.2773 19.2812C50.2891 19.2578 50.3418 19.1699 50.3418 19.1699L47.2832 13.5977Z" fill="white"/>
<path d="M60.7832 13.5977H62.541V22H60.7832V18.8008C60.1914 19 59.5586 19.0996 58.8848 19.0996C57.7129 19.0996 56.7461 18.7305 56.207 17.8984C55.7793 17.2422 55.7441 16.5742 55.7441 15.7832V13.5977H57.4961V16.041C57.4961 17.084 58.082 17.4824 59.1191 17.4824C59.7344 17.4824 60.291 17.3652 60.7832 17.1309V13.5977Z" fill="white"/>
<path d="M69.9121 22L69.3848 20.5996H65.6758L65.1602 22H63.3379L66.6719 13.6035H68.4062L71.7344 22H69.9121ZM67.5391 15.6484L66.2793 19.0117H68.7812L67.5391 15.6484Z" fill="white"/>
<path d="M78.3906 12.1621L76.5156 14.1543L75.3555 13.0586L77.2246 11.0664L78.3906 12.1621ZM80.125 22H78.373V16.6797L73.498 22H72.5312V13.5977H74.2832V18.9121L79.1641 13.5977H80.125V22Z" fill="white"/>
<path d="M84.6133 19.2812H86.3711C86.4473 19.9785 87.1035 20.3594 87.7949 20.3594C88.4629 20.3594 89.2188 19.9727 89.2188 19.1934C89.2188 18.4492 88.5273 17.9688 87.7949 17.9688H84.9473V13.5977H90.3906V15.2207H86.7051V16.4512H87.7949C88.5215 16.4512 89.1484 16.6035 89.6465 16.8848C90.4902 17.3594 90.9707 18.1973 90.9707 19.2871C90.9707 20.9688 89.4297 22 87.7949 22C86.2129 22 84.666 21.0449 84.6133 19.2812Z" fill="white"/>
<path d="M100.439 17.7988C100.439 20.1602 98.623 22 96.1562 22C93.6953 22 91.8789 20.1602 91.8789 17.7988C91.8789 15.4434 93.6953 13.5977 96.1562 13.5977C98.623 13.5977 100.439 15.4434 100.439 17.7988ZM98.6406 17.7988C98.6406 16.3516 97.668 15.209 96.1562 15.209C94.6504 15.209 93.6777 16.3516 93.6777 17.7988C93.6777 19.252 94.6504 20.3828 96.1562 20.3828C97.668 20.3828 98.6406 19.252 98.6406 17.7988Z" fill="white"/>
<path d="M109.908 17.7988C109.908 20.1602 108.092 22 105.625 22C103.164 22 101.348 20.1602 101.348 17.7988C101.348 15.4434 103.164 13.5977 105.625 13.5977C108.092 13.5977 109.908 15.4434 109.908 17.7988ZM108.109 17.7988C108.109 16.3516 107.137 15.209 105.625 15.209C104.119 15.209 103.146 16.3516 103.146 17.7988C103.146 19.252 104.119 20.3828 105.625 20.3828C107.137 20.3828 108.109 19.252 108.109 17.7988Z" fill="white"/>
<path d="M119.377 17.7988C119.377 20.1602 117.561 22 115.094 22C112.633 22 110.816 20.1602 110.816 17.7988C110.816 15.4434 112.633 13.5977 115.094 13.5977C117.561 13.5977 119.377 15.4434 119.377 17.7988ZM117.578 17.7988C117.578 16.3516 116.605 15.209 115.094 15.209C113.588 15.209 112.615 16.3516 112.615 17.7988C112.615 19.252 113.588 20.3828 115.094 20.3828C116.605 20.3828 117.578 19.252 117.578 17.7988Z" fill="white"/>
<path d="M126.309 15.1973V16.9785H128.611C129.104 16.9785 129.66 16.6738 129.66 16.0938C129.66 15.5195 129.145 15.2207 128.605 15.1973H126.309ZM124.551 13.5977H128.828C130.264 13.5977 131.377 14.6055 131.377 16.0938C131.377 17.5469 130.205 18.4141 128.828 18.4141H126.309V19.2285H130.463V20.6172H126.309V22H124.551V20.6172H123.314V19.2285H124.551V18.4141H123.314V16.9902H124.551V13.5977Z" fill="white"/>
<defs>
<linearGradient id="paint0_linear_2100_469" x1="0" y1="17" x2="152" y2="17" gradientUnits="userSpaceOnUse">
<stop stop-color="#FCAD7F"/>
<stop offset="1" stop-color="#E5867A"/>
</linearGradient>
</defs>
</svg>
